<mxfile host="app.diagrams.net" modified="2024-07-17T21:07:17.087Z" agent="Mozilla/5.0 (Windows NT 10.0; Win64; x64) AppleWebKit/537.36 (KHTML, like Gecko) Chrome/126.0.0.0 Safari/537.36" etag="N9z2o293PDGruGOBBjrh" version="24.7.1" type="github">
  <diagram name="Page-1" id="GXwMVz0qOGUceei5JBcQ">
    <mxGraphModel dx="2440" dy="1301" grid="1" gridSize="10" guides="1" tooltips="1" connect="1" arrows="1" fold="1" page="1" pageScale="1" pageWidth="5000" pageHeight="5000" math="0" shadow="0">
      <root>
        <mxCell id="0" />
        <mxCell id="1" parent="0" />
        <mxCell id="y7p2_PVMPCqtrmZ_rFnr-1" value="" style="rounded=0;whiteSpace=wrap;html=1;" parent="1" vertex="1">
          <mxGeometry x="130" y="220" width="120" height="60" as="geometry" />
        </mxCell>
        <mxCell id="RRZFKACsmZvsAPj_ECY2-2" value="MAIN" style="rounded=0;whiteSpace=wrap;html=1;" vertex="1" parent="1">
          <mxGeometry x="2600" y="90" width="80" height="40" as="geometry" />
        </mxCell>
        <mxCell id="RRZFKACsmZvsAPj_ECY2-5" value="RIGHT PANE" style="rounded=0;whiteSpace=wrap;html=1;" vertex="1" parent="1">
          <mxGeometry x="2830" y="180" width="80" height="40" as="geometry" />
        </mxCell>
        <mxCell id="RRZFKACsmZvsAPj_ECY2-6" value="MIDDLE PANE" style="rounded=0;whiteSpace=wrap;html=1;" vertex="1" parent="1">
          <mxGeometry x="2600" y="180" width="80" height="40" as="geometry" />
        </mxCell>
        <mxCell id="RRZFKACsmZvsAPj_ECY2-7" value="&amp;nbsp;LEFT PANE" style="rounded=0;whiteSpace=wrap;html=1;" vertex="1" parent="1">
          <mxGeometry x="2340" y="180" width="80" height="40" as="geometry" />
        </mxCell>
      </root>
    </mxGraphModel>
  </diagram>
</mxfile>
